<?xml version="1.0" standalone="no"?>
<!DOCTYPE svg PUBLIC "-//W3C//DTD SVG 20010904//EN"
 "http://www.w3.org/TR/2001/REC-SVG-20010904/DTD/svg10.dtd">
<svg version="1.0" xmlns="http://www.w3.org/2000/svg"
 width="280.000000pt" height="210.000000pt" viewBox="0 0 280.000000 210.000000"
 preserveAspectRatio="xMidYMid meet">

<g transform="translate(0.000000,210.000000) scale(0.100000,-0.100000)"
fill="#000000" stroke="none">
<path d="M0 1050 l0 -1050 1400 0 1400 0 0 1050 0 1050 -1400 0 -1400 0 0
-1050z m766 909 c4 -7 -4 -20 -17 -30 -29 -23 -79 -25 -79 -4 0 16 45 44 72
45 9 0 20 -5 24 -11z m1208 -15 c4 -10 12 -14 22 -10 48 18 185 -79 227 -161
22 -42 21 -46 -8 -41 -18 4 -25 1 -25 -11 0 -20 46 -71 65 -71 20 0 56 -50 53
-74 -7 -45 -34 -25 -175 128 -33 35 -43 79 -22 91 7 5 4 14 -7 26 -13 15 -25
18 -49 13 -33 -6 -40 -2 -69 40 -12 17 -14 17 -45 2 -38 -20 -53 -13 -45 20 8
30 -20 44 -43 21 -14 -14 -13 -16 6 -26 31 -17 29 -75 -4 -97 -13 -8 -32 -14
-42 -12 -24 4 -29 62 -9 93 12 18 12 25 3 28 -9 3 -9 8 1 18 34 36 155 53 166
23z m-214 -89 c0 -20 -39 -40 -53 -26 -7 7 -6 15 3 26 16 19 50 20 50 0z
m-672 -30 c18 -40 14 -61 -14 -73 -37 -18 -64 0 -64 41 0 18 5 38 12 45 21 21
54 14 66 -13z m-342 -37 c10 -15 -32 -48 -62 -48 -30 0 -31 24 -2 44 27 19 54
21 64 4z m911 -17 c-4 -21 -1 -34 13 -46 14 -13 16 -23 10 -47 -5 -16 -15 -36
-21 -44 -10 -12 -7 -20 14 -42 32 -34 36 -72 8 -72 -13 0 -26 14 -38 40 -20
43 -33 51 -33 21 0 -11 -5 -23 -12 -27 -14 -9 -38 23 -38 49 0 15 5 18 24 15
24 -5 24 -4 12 21 -22 42 -12 112 19 139 36 30 49 28 42 -7z m372 -7 c33 -17
51 -41 51 -71 0 -10 16 -42 35 -70 19 -29 35 -56 35 -62 0 -11 -24 -21 -50
-21 -11 0 -23 -6 -27 -14 -7 -12 -45 -36 -57 -36 -3 0 -3 48 -1 106 3 95 2
107 -16 122 -19 16 -27 62 -11 62 5 0 23 -7 41 -16z m-871 -21 c-4 -34 -23
-40 -38 -12 -10 17 -9 23 1 30 27 17 40 10 37 -18z m592 -2 c0 -6 -10 -17 -22
-25 -27 -19 -48 -5 -28 19 14 16 50 21 50 6z m-969 -28 c-8 -15 -10 -15 -11
-2 0 17 10 32 18 25 2 -3 -1 -13 -7 -23z m1033 -19 c33 -33 7 -94 -40 -94 -22
0 -44 25 -44 50 0 13 45 60 59 60 5 0 17 -7 25 -16z m-1275 -33 c-3 -6 -10 -7
-18 -2 -7 5 -10 14 -6 21 9 14 29 -2 24 -19z m1422 9 c21 -12 25 -50 9 -81
-12 -21 -50 -25 -68 -7 -20 20 -14 65 10 82 27 19 24 19 49 6z m-1445 -65 c10
-14 12 -14 18 0 8 21 42 19 66 -5 15 -15 20 -16 20 -6 0 8 5 18 10 21 31 19
97 -47 85 -85 -8 -26 -26 -25 -60 2 -20 15 -30 18 -33 10 -6 -19 -33 -14 -59
9 -20 20 -23 20 -29 5 -9 -24 -29 -20 -68 15 -36 31 -52 61 -42 78 7 11 76
-23 92 -44z m535 19 c21 -56 -14 -90 -74 -72 -49 15 -53 34 -15 69 41 37 75
38 89 3z m-264 -141 c17 -43 42 -105 57 -138 38 -92 25 -115 -68 -115 -50 0
-111 29 -170 82 -85 74 -98 140 -21 104 42 -20 51 -17 36 12 -6 12 -11 32 -11
46 0 40 36 34 57 -9 20 -42 43 -46 43 -7 0 15 7 36 15 46 8 11 15 28 15 38 0
37 17 15 47 -59z m1473 42 c10 -12 8 -16 -14 -25 -15 -5 -26 -17 -26 -28 0
-25 -19 -42 -47 -42 -31 0 -29 15 7 42 17 12 30 29 30 38 0 32 29 41 50 15z
m-496 -21 c20 -19 20 -44 2 -69 -13 -18 -14 -18 -50 4 -41 26 -42 28 -20 59
18 26 46 28 68 6z m-330 -33 c9 -14 -40 -41 -73 -41 -43 0 -48 18 -9 35 38 16
74 19 82 6z m132 -4 c3 -3 -13 -11 -36 -17 -47 -13 -63 -7 -35 14 18 13 59 15
71 3z m394 -21 c0 -14 -21 -26 -46 -26 -22 0 -16 20 9 30 31 12 37 12 37 -4z
m-947 -26 c6 -16 18 -30 27 -30 8 0 -2 -11 -22 -25 -43 -29 -51 -30 -72 -9
-33 32 -9 94 36 94 13 0 24 -10 31 -30z m601 11 c9 -15 -41 -41 -79 -41 -44 0
-45 17 -2 35 37 16 73 19 81 6z m487 -32 c20 -10 20 -12 3 -30 -23 -25 -81
-41 -105 -28 -27 14 -24 27 14 49 36 23 59 25 88 9z m-723 -11 c-6 -17 -76
-39 -143 -44 -33 -2 -91 -9 -128 -15 -71 -12 -94 -6 -64 16 25 18 87 29 99 17
6 -6 22 -7 39 -2 16 5 29 5 29 1 0 -5 11 -6 25 -3 14 2 25 8 25 12 0 12 50 28
88 29 22 1 32 -3 30 -11z m302 -37 c5 -11 10 -28 10 -39 0 -11 11 -27 25 -36
49 -32 23 -116 -37 -116 -35 0 -50 68 -24 106 10 13 11 25 5 35 -12 19 -12 69
1 69 5 0 14 -9 20 -19z m211 -34 c11 -19 -1 -36 -23 -37 -12 0 -40 48 -34 59
9 14 45 1 57 -22z m-91 -44 c0 -12 -5 -23 -10 -23 -11 0 -30 42 -30 67 0 14 3
14 20 -2 11 -10 20 -29 20 -42z m-480 38 c0 -11 -73 -41 -100 -41 -30 0 -24
27 8 38 34 13 92 15 92 3z m104 -17 c-27 -14 -61 -37 -76 -52 -15 -14 -31 -23
-34 -19 -10 9 65 78 94 87 56 17 63 9 16 -16z m672 5 c9 -15 -9 -30 -53 -45
-41 -14 -57 -7 -51 22 3 13 11 18 27 16 12 -1 30 2 39 8 22 12 29 12 38 -1z
m-1058 -72 c4 -31 -12 -36 -28 -8 -15 29 -12 43 8 39 10 -2 18 -14 20 -31z
m890 16 c-4 -20 -45 -30 -60 -15 -16 16 1 32 33 32 24 0 30 -4 27 -17z m-778
-10 c0 -5 -4 -14 -9 -22 -8 -12 -12 -12 -25 -2 -9 7 -13 17 -10 22 6 11 44 12
44 2z m428 -25 c17 -17 15 -68 -5 -90 -33 -36 -83 -11 -83 42 0 49 56 80 88
48z m-150 -60 c23 -23 14 -70 -20 -105 -64 -66 -112 -22 -74 68 8 19 18 37 22
42 12 11 59 8 72 -5z m-268 -50 c32 -53 21 -108 -15 -78 -18 15 -36 76 -28 96
8 22 22 17 43 -18z m-116 -44 c3 -9 6 -30 6 -47 -1 -30 -1 -31 -15 -13 -16 22
-20 76 -6 76 5 0 12 -7 15 -16z m716 -71 c0 -26 4 -33 20 -33 26 0 45 -40 36
-75 -15 -61 -107 -55 -100 8 2 17 11 38 20 48 15 17 15 20 -6 46 -12 16 -17
29 -11 31 6 2 11 13 11 25 1 22 1 22 15 3 8 -11 15 -35 15 -53z m110 -4 c4
-13 4 -33 0 -44 -7 -19 -7 -19 -18 2 -16 29 -16 76 0 71 7 -3 15 -15 18 -29z
m-773 3 c31 -20 50 -112 23 -112 -19 0 -50 55 -50 86 0 35 5 40 27 26z m-140
-24 c-3 -8 -6 -5 -6 6 -1 11 2 17 5 13 3 -3 4 -12 1 -19z m302 -50 c17 -47 21
-78 11 -78 -14 0 -43 68 -36 86 8 20 15 17 25 -8z m399 -30 c7 -7 12 -24 12
-38 0 -14 5 -31 11 -37 13 -13 -25 -43 -55 -43 -49 0 -75 73 -39 112 18 21 53
24 71 6z m-582 -55 c10 -16 19 -32 20 -38 1 -5 5 -18 9 -27 6 -14 2 -18 -19
-18 -20 0 -30 9 -46 39 -32 63 -2 100 36 44z m91 -5 c-3 -8 -6 -5 -6 6 -1 11
2 17 5 13 3 -3 4 -12 1 -19z m328 6 c27 -11 37 -51 20 -84 -17 -34 -46 -45
-75 -30 -29 16 -28 83 2 104 25 18 29 19 53 10z m-325 -94 c0 -5 -2 -10 -4
-10 -3 0 -8 5 -11 10 -3 6 -1 10 4 10 6 0 11 -4 11 -10z m108 -23 c6 -7 8 -18
4 -25 -9 -14 -63 -11 -79 5 -18 16 -16 26 2 19 8 -3 15 -1 15 4 0 15 46 12 58
-3z m437 -49 c-3 -18 -6 -60 -7 -93 -1 -121 -6 -144 -40 -161 -16 -8 -36 -13
-44 -10 -17 7 -18 -6 -1 -23 10 -10 8 -15 -7 -27 -25 -18 -48 -18 -92 1 -19 8
-41 12 -48 9 -7 -3 -21 3 -30 12 -29 29 0 45 82 47 38 1 68 5 66 8 -2 4 5 17
15 30 16 20 21 21 35 10 10 -8 16 -9 16 -3 0 6 -4 14 -10 17 -5 3 -10 13 -10
21 0 22 -27 48 -33 31 -4 -12 -57 12 -85 40 -7 7 -22 13 -33 13 -40 0 -16 17
74 49 50 19 101 40 112 48 34 23 47 17 40 -19z m-526 -15 c6 -14 10 -28 7 -30
-11 -11 -89 10 -108 29 -28 28 -14 34 19 8 20 -16 28 -18 31 -8 9 33 12 37 25
32 8 -3 20 -17 26 -31z m311 -9 c0 -2 -12 -4 -27 -4 -21 0 -24 3 -14 9 13 8
41 5 41 -5z m-204 -52 c-9 -2 -25 -1 -34 3 -15 6 -15 8 3 15 12 4 26 3 34 -4
12 -9 11 -12 -3 -14z m-121 -13 c5 -6 5 -13 -3 -21 -21 -21 -13 -26 27 -21 39
5 71 -13 83 -47 2 -8 27 -13 72 -14 54 -1 71 -5 80 -18 16 -27 -4 -51 -53 -63
-39 -9 -41 -11 -25 -26 13 -13 14 -21 5 -38 -22 -40 -134 -19 -118 22 4 10 -1
17 -14 20 -10 3 -19 0 -19 -6 0 -16 -50 33 -66 66 -9 15 -24 37 -35 48 -25 25
-26 87 -1 105 17 13 48 10 67 -7z m326 -9 c40 -22 16 -70 -36 -70 -35 0 -55
15 -55 42 0 32 52 48 91 28z"/>
<path d="M1590 590 c0 -8 5 -22 10 -30 9 -13 10 -13 10 0 0 8 -5 22 -10 30 -9
13 -10 13 -10 0z"/>
<path d="M1670 585 c0 -8 4 -15 10 -15 5 0 7 7 4 15 -4 8 -8 15 -10 15 -2 0
-4 -7 -4 -15z"/>
</g>
</svg>
